<?xml version="1.0" encoding="UTF-8"?>
<svg
xmlns="http://www.w3.org/2000/svg"
width="18"
height="18"
viewBox="0 0 24 24"
fill="none"
>
<path
d="M22.9999 17.91C23.0199 18.66 22.8199 19.37 22.4599 19.98C22.2599 20.34 21.9899 20.67 21.6899 20.94C20.9999 21.58 20.0899 21.97 19.0799 22C17.6199 22.03 16.3299 21.28 15.6199 20.13C15.2399 19.54 15.0099 18.83 14.9999 18.08C14.9699 16.82 15.5299 15.68 16.4299 14.93C17.1099 14.37 17.9699 14.02 18.9099 14C21.1199 13.95 22.9499 15.7 22.9999 17.91Z"
stroke="#8D8D8D"
stroke-width="1.5"
stroke-miterlimit="10"
stroke-linecap="round"
stroke-linejoin="round"
></path>
<path
d="M17.4399 18.03L18.45 18.99L20.5399 16.97"
stroke="#8D8D8D"
stroke-width="1.5"
stroke-linecap="round"
stroke-linejoin="round"
></path>
<path
d="M3.17017 7.44L12.0002 12.55L20.7701 7.46997"
stroke="#8D8D8D"
stroke-width="1.5"
stroke-linecap="round"
stroke-linejoin="round"
></path>
<path
d="M12.0002 21.61V12.54"
stroke="#8D8D8D"
stroke-width="1.5"
stroke-linecap="round"
stroke-linejoin="round"
></path>
<path
d="M21.6101 9.17V14.83C21.6101 14.88 21.6101 14.92 21.6001 14.97C20.9001 14.36 20.0001 14 19.0001 14C18.0601 14 17.1901 14.33 16.5001 14.88C15.5801 15.61 15.0001 16.74 15.0001 18C15.0001 18.75 15.2101 19.46 15.5801 20.06C15.6701 20.22 15.7801 20.37 15.9001 20.51L14.0701 21.52C12.9301 22.16 11.0701 22.16 9.93011 21.52L4.59012 18.56C3.38012 17.89 2.39014 16.21 2.39014 14.83V9.17C2.39014 7.79 3.38012 6.11002 4.59012 5.44002L9.93011 2.48C11.0701 1.84 12.9301 1.84 14.0701 2.48L19.4101 5.44002C20.6201 6.11002 21.6101 7.79 21.6101 9.17Z"
stroke="#8D8D8D"
stroke-width="1.5"
stroke-linecap="round"
stroke-linejoin="round"
></path>
</svg>